<?xml version="1.0"?>
<svg width="240.94" height="155.91" xmlns="http://www.w3.org/2000/svg" xmlns:svg="http://www.w3.org/2000/svg" version="1.1">
 <!-- Generator: Adobe Illustrator 29.8.1, SVG Export Plug-In . SVG Version: 2.1.1 Build 2)  -->
 <defs>
  <style>.st0 {
        fill: #245b5b;
      }</style>
 </defs>
 <g class="layer">
  <title>Layer 1</title>
  <g id="svg_26">
   <path class="st0" d="m114.34,56.46c0.04,-1.39 0,-9.18 0,-10.59c0,-0.21 0,-0.45 0,-0.66c-0.04,-5.72 0.16,-12.47 -0.21,-18.06c-0.18,-2.57 -0.73,-5.2 -3.49,-6.02c-0.61,-0.18 -2.39,-0.2 -2.48,-0.29c-0.07,-0.07 0.05,-1.25 0,-1.55l40.76,0c15.34,0.89 43.32,2.93 47.08,21.88c2.89,14.61 -6.84,21.91 -19.63,24.91l-9.46,1.7c7,0.91 14.3,3.02 20.54,6.3c31.24,16.47 24.44,52.76 -10.53,57.65c-11.83,1.66 -21.2,0.29 -30.78,-6.82l-3.03,-2.25l-4.08,-9.52c1.85,1.84 5.75,4.8 7.13,5.64c7,4.34 14.95,5.54 23,3.82c22.62,-4.8 27.52,-31.79 9.08,-45.29c-13.79,-10.11 -31.83,-8.3 -48.01,-8.45c0.18,1.2 -0.21,22.33 -0.21,23.47l-15.68,-35.92l0,0.04zm15.91,10.23c12.47,0 27.41,-0.18 38.58,-6.39c13.18,-7.32 14.82,-26.04 1.55,-33.74c-11.49,-6.66 -27.56,-4.97 -40.35,-5.29l0.21,45.4l0,0.02z" id="svg_2"/>
   <path class="st0" d="m146.13,130.04l-17.88,0l-9.12,-21.09c-10.74,-20.49 -35.32,-27.97 -54.38,-13.23c-1.67,1.3 -3.08,2.91 -4.65,4.2c-0.25,0.2 -0.36,0.54 -0.77,0.45c0.32,-2.48 3.1,-4.68 4.97,-6.2c11.36,-9.23 27.5,-11.06 41.08,-5.98c2.03,0.75 3.87,1.82 5.84,2.66l-24.85,-57.8l-10.3,23.11c-0.41,0.71 -1.12,0.14 -1.75,0.14c-0.16,-0.18 0.69,-2.02 0.84,-2.36c3.33,-7.88 7.57,-15.7 10.69,-23.61c1.73,-4.38 3.46,-9.61 -3.58,-9c0.04,-0.45 -0.16,-1.41 0.21,-1.68l15.59,0.13c5.54,12.09 47.12,107.11 48.04,110.29l0.02,-0.02z" id="svg_3"/>
   <path class="st0" d="m41,130.26l11.38,-24.81c0.39,0.23 1.75,0 1.66,0.55c-2.83,5.07 -5.99,19.25 0.87,22.15c0.71,0.3 2.76,0.45 2.87,0.55c0.09,0.09 -0.05,1.25 0,1.55l-16.78,0z" id="svg_4"/>
   <path class="st0" d="m128.85,158.42c1.64,-0.5 1.8,1.96 0.2,1.73c-0.98,-0.14 -1.07,-1.46 -0.2,-1.73z" id="svg_23"/>
   <path class="st0" d="m114.34,45.88c-0.27,-0.21 -0.27,-0.45 0,-0.66c0,0.21 0,0.45 0,0.66z" id="svg_24"/>
  </g>
 </g>
</svg>